<mxfile host="app.diagrams.net" modified="2023-11-16T23:11:51.632Z" agent="Mozilla/5.0 (Windows NT 10.0; Win64; x64) AppleWebKit/537.36 (KHTML, like Gecko) Chrome/119.0.0.0 Safari/537.36 Edg/119.0.0.0" etag="8dJGw-uZDVRoDc0R71bw" version="22.1.2" type="device">
  <diagram name="Sayfa -1" id="_Udiu5R-LWi9xgBzmh_H">
    <mxGraphModel dx="1242" dy="523" grid="1" gridSize="10" guides="1" tooltips="1" connect="1" arrows="1" fold="1" page="1" pageScale="1" pageWidth="827" pageHeight="1169" math="0" shadow="0">
      <root>
        <mxCell id="0" />
        <mxCell id="1" parent="0" />
        <mxCell id="dvrIkWAQ6JIjXKBzzx-Z-1" value="&lt;p style=&quot;margin:0px;margin-top:4px;text-align:center;&quot;&gt;&lt;b&gt;Department&lt;/b&gt;&lt;/p&gt;&lt;hr size=&quot;1&quot;/&gt;&lt;p style=&quot;margin:0 0 0 4px;line-height:1.6;&quot;&gt;+ Department(String): &lt;/p&gt;&lt;hr size=&quot;1&quot;/&gt;&lt;p style=&quot;margin:0 0 0 4px;line-height:1.6;&quot;&gt;- advisorIDAdvisorMap: Map&amp;lt;Integer, Advisor&amp;gt;&lt;br/&gt;- sectionCourseMap: Map&amp;lt;CourseSection, Course&amp;gt;&lt;br/&gt;- advisors: List&amp;lt;Advisor&amp;gt;&lt;br/&gt;- sectionCodeCourseMap: Map&amp;lt;String, Course&amp;gt;&lt;br/&gt;- courses: List&amp;lt;Course&amp;gt;&lt;br/&gt;- lecturers: List&amp;lt;Lecturer&amp;gt;&lt;br/&gt;- userNamePersonMap: Map&amp;lt;String, Person&amp;gt;&lt;br/&gt;- maxCourseNumber: byte&lt;br/&gt;- courseSections: List&amp;lt;CourseSection&amp;gt;&lt;br/&gt;- departmentName: String&lt;br/&gt;- students: List&amp;lt;Student&amp;gt;&lt;br/&gt;- studentIDStudentMap: Map&amp;lt;Integer, Student&amp;gt;&lt;br/&gt;- transcripts: List&amp;lt;Transcript&amp;gt;&lt;br/&gt;- courseCodeCourseMap: Map&amp;lt;String, Course&amp;gt;&lt;/p&gt;&lt;hr size=&quot;1&quot;/&gt;&lt;p style=&quot;margin:0 0 0 4px;line-height:1.6;&quot;&gt;+ getAdvisors(): List&amp;lt;Advisor&amp;gt;&lt;br/&gt;+ getStudents(): List&amp;lt;Student&amp;gt;&lt;br/&gt;+ getSectionCodeCourseMap(): Map&amp;lt;String, Course&amp;gt;&lt;br/&gt;+ getStudentIDStudentMap(): Map&amp;lt;Integer, Student&amp;gt;&lt;br/&gt;+ getCourseCodeCourseMap(): Map&amp;lt;String, Course&amp;gt;&lt;br/&gt;+ getSectionCourseMap(): Map&amp;lt;CourseSection, Course&amp;gt;&lt;br/&gt;+ getTranscripts(): List&amp;lt;Transcript&amp;gt;&lt;br/&gt;+ getCourseSections(): List&amp;lt;CourseSection&amp;gt;&lt;br/&gt;+ getUserNamePersonMap(): Map&amp;lt;String, Person&amp;gt;&lt;br/&gt;+ getMaxCourseNumber(): byte&lt;br/&gt;+ getAdvisorIDAdvisorMap(): Map&amp;lt;Integer, Advisor&amp;gt;&lt;br/&gt;+ getDepartmentName(): String&lt;br/&gt;+ getLecturers(): List&amp;lt;Lecturer&amp;gt;&lt;br/&gt;+ getCourses(): List&amp;lt;Course&amp;gt;&lt;/p&gt;" style="verticalAlign=top;align=left;overflow=fill;fontSize=14;fontFamily=Helvetica;html=1;rounded=0;shadow=0;comic=0;labelBackgroundColor=none;strokeWidth=1;" vertex="1" parent="1">
          <mxGeometry x="80" y="50" width="389" height="719" as="geometry" />
        </mxCell>
      </root>
    </mxGraphModel>
  </diagram>
</mxfile>
